<?xml version="1.0" encoding="UTF-8" standalone="no"?>
<!-- Created with Inkscape (http://www.inkscape.org/) -->

<svg
   width="200"
   height="100"
   viewBox="130 140 400 300"
   version="1.1"
   id="svg5"
   sodipodi:docname="logoFerr.svg"
   inkscape:version="1.1.1 (3bf5ae0d25, 2021-09-20)"
   xmlns:inkscape="http://www.inkscape.org/namespaces/inkscape"
   xmlns:sodipodi="http://sodipodi.sourceforge.net/DTD/sodipodi-0.dtd"
   xmlns="http://www.w3.org/2000/svg"
   xmlns:svg="http://www.w3.org/2000/svg">
  <sodipodi:namedview
     id="namedview7"
     pagecolor="#ffffff"
     bordercolor="#666666"
     borderopacity="1.0"
     inkscape:pageshadow="2"
     inkscape:pageopacity="0.0"
     inkscape:pagecheckerboard="0"
     inkscape:document-units="px"
     showgrid="false"
     inkscape:zoom="1.6012195"
     inkscape:cx="410"
     inkscape:cy="230.76162"
     inkscape:window-width="1920"
     inkscape:window-height="1017"
     inkscape:window-x="1072"
     inkscape:window-y="438"
     inkscape:window-maximized="1"
     inkscape:current-layer="layer1" />
  <defs
     id="defs2">
    <rect
       x="136.30983"
       y="245.50044"
       width="550.94865"
       height="97.771976"
       id="rect13032" />
    <rect
       x="187.69365"
       y="116.32724"
       width="480.29591"
       height="107.76327"
       id="rect3982" />
  </defs>
  <g
     inkscape:label="Capa 1"
     inkscape:groupmode="layer"
     id="layer1">
    <path
       d="m 86.989287,388.82694 c 34.870433,22.21406 74.290803,21.70422 102.483243,-1.31378 9.21932,-7.45679 18.48543,-19.76255 23.51757,-31.19115 l 1.30467,-2.86305 2.01704,-0.35124 c 9.98806,-1.63846 36.16011,-3.17475 58.40725,-3.39817 25.98729,-0.30002 79.47146,1.18597 105.96487,2.90523 35.60862,2.35322 64.39462,5.27744 84.59709,8.67834 l 5.72153,0.96554 2.71156,2.85722 c 5.12504,5.40036 13.55167,12.13323 20.97986,16.76837 27.14108,16.93135 58.46394,19.88697 83.88753,7.98569 6.90516,-3.23589 12.96274,-7.19978 19.81797,-13.07493 3.05767,-2.5569 12.266,-13.71272 14.72904,-17.77681 7.35953,-12.22335 12.21469,-26.20499 14.05076,-40.78124 0.59317,-4.76855 0.57717,-6.4365 -0.12008,-7.88667 -0.69724,-1.45018 -2.59462,-2.45886 -4.01668,-2.08601 -0.63256,0.15897 -13.45045,6.57568 -28.38948,14.27967 -14.94453,7.64316 -28.66778,14.48182 -30.46528,15.17449 -4.19775,1.5757 -10.46157,1.46969 -14.9862,-0.27098 -5.86127,-2.2135 -11.47458,-6.75246 -14.94711,-12.06264 -1.72136,-2.63939 -25.67213,-50.77198 -27.30907,-54.8634 -3.21445,-8.12028 -2.99386,-17.90445 0.50115,-24.56855 1.49678,-2.82576 5.16325,-6.99761 7.53277,-8.51849 1.14288,-0.77704 15.20078,-8.08863 31.28032,-16.29694 30.51061,-15.56695 30.32961,-15.48249 30.23102,-18.06302 -0.15495,-2.30968 -1.50356,-3.51061 -9.53235,-8.22824 -30.94266,-18.1303 -66.07183,-18.16212 -92.71383,-0.0597 -8.61052,5.84179 -16.22035,13.50857 -21.81673,21.97606 -5.14585,7.78646 -9.69384,17.41375 -12.16388,25.87336 l -1.33725,4.58986 -5.04629,0.24131 c -53.06705,2.53095 -129.99255,0.28521 -179.95602,-5.19604 -22.95715,-2.56107 -40.63841,-5.50677 -54.22591,-9.09208 l -4.44526,-1.16173 -7.73626,-8.04182 c -8.36744,-8.7619 -11.58462,-11.54648 -19.36808,-16.83115 -16.40359,-11.17575 -33.38061,-17.06681 -51.37492,-17.81072 -21.510467,-0.87156 -39.558878,5.53729 -56.805105,20.22138 -3.057677,2.55691 -12.265999,13.71272 -14.729028,17.77682 -5.883921,9.76056 -9.944134,20.01186 -12.377548,31.26187 -1.251442,5.83608 -2.236242,12.83371 -2.146398,15.01976 0.194365,3.34188 2.52314,5.24539 5.182886,4.25051 0.886555,-0.33166 13.777346,-6.83669 28.697571,-14.45041 14.866148,-7.61568 28.354203,-14.37195 29.976113,-14.9194 3.835586,-1.40697 10.321299,-1.23225 14.594219,0.40831 5.86136,2.21361 11.47468,6.75256 14.94713,12.06262 1.72136,2.6394 25.67213,50.77199 27.30916,54.86351 2.51938,6.39721 3.00617,13.56957 1.31966,19.66268 -1.07865,3.87172 -2.22749,6.07342 -4.80291,9.19352 -2.86698,3.47332 -4.01528,4.1896 -15.81413,10.24917 -5.79678,2.97283 -19.24953,9.82134 -29.86476,15.25687 -21.200576,10.90255 -21.024998,10.75734 -20.071054,13.85391 0.584503,1.99182 0.936543,2.30773 4.799643,4.78231 z"
       id="path838"
       style="fill:#975cf6;stroke:none;stroke-width:0.0404959" />
    <text
       xml:space="preserve"
       id="text3980"
       style="font-style:normal;font-weight:normal;font-size:40px;line-height:1.25;font-family:sans-serif;white-space:pre;shape-inside:url(#rect3982);fill:#000000;fill-opacity:1;stroke:none"
       transform="matrix(2.0550005,0,0,3.5581177,-330.70612,-287.36019)"><tspan
         x="187.69336"
         y="152.82134"
         id="tspan845"><tspan
           style="font-family:'BankGothic Lt BT';-inkscape-font-specification:'BankGothic Lt BT, Normal'"
           id="tspan843">Ferreteria</tspan></tspan></text>
    <text
       xml:space="preserve"
       id="text13030"
       style="font-style:normal;font-weight:normal;font-size:40px;line-height:1.25;font-family:sans-serif;white-space:pre;shape-inside:url(#rect13032);fill:#000000;fill-opacity:1;stroke:none"
       transform="matrix(2.4040317,0,0,4.7596394,-182.03223,-946.35442)"><tspan
         x="136.31055"
         y="281.99321"
         id="tspan849"><tspan
           style="font-family:'BankGothic Md BT';-inkscape-font-specification:'BankGothic Md BT, Normal'"
           id="tspan847">La Llave</tspan></tspan></text>
  </g>
</svg>
